<?xml version="1.0" encoding="UTF-8"?><svg id="Layer_1" xmlns="http://www.w3.org/2000/svg" viewBox="0 0 724.13 664.98"><path d="M675.1,115.8c7.34,12.71,13.89,24.41,19.69,35.11,5.79,10.71,10.65,20.8,14.58,30.26,3.93,9.48,6.64,18.68,8.15,27.62,1.5,8.95,1.87,18.08,1.08,27.38-1.97,21.92-8.38,40.83-19.22,56.71-10.85,15.89-26.81,29.91-47.88,42.08l-111.28,64.25L362.23,90.9,473.52,26.65c21.07-12.16,41.2-18.97,60.38-20.42,19.17-1.45,38.75,2.46,58.72,11.71,8.45,3.98,16.17,8.85,23.17,14.63,6.99,5.78,13.61,12.74,19.85,20.87,6.24,8.14,12.54,17.4,18.92,27.76,6.37,10.38,13.23,21.91,20.56,34.61Zm-60.19,34.75c-7-12.12-13.19-22.5-18.56-31.14-5.37-8.63-10.28-15.81-14.73-21.52-4.45-5.7-8.72-10.26-12.81-13.68-4.09-3.41-8.58-6.02-13.46-7.82-17.44-6.86-36.11-4.55-56.03,6.95l-45.9,26.5,116,200.92,45.9-26.5c19.92-11.5,31.26-26.51,34.03-45.05,.88-5.13,.87-10.32-.04-15.57-.92-5.24-2.72-11.22-5.44-17.93-2.72-6.7-6.47-14.54-11.27-23.52-4.8-8.97-10.69-19.52-17.69-31.64Z" style="fill:#eb4236;"/><g id="Layer_1_copy"><path d="M69.93,81.19c6.37-10.37,12.68-19.62,18.92-27.76,6.24-8.13,12.86-15.09,19.85-20.87,7-5.78,14.72-10.65,23.17-14.63,19.97-9.25,39.55-13.15,58.72-11.71,19.18,1.46,39.31,8.26,60.38,20.42l111.28,64.25L184.23,399.2l-111.28-64.25c-21.07-12.16-37.03-26.19-47.88-42.08-10.84-15.88-17.25-34.78-19.22-56.71-.78-9.3-.42-18.43,1.08-27.38,1.51-8.94,4.23-18.15,8.15-27.62,3.93-9.47,8.79-19.55,14.58-30.26,5.8-10.7,12.36-22.4,19.69-35.11,7.33-12.7,14.19-24.23,20.56-34.61Zm21.94,101c-4.79,8.98-8.55,16.81-11.27,23.52-2.72,6.71-4.53,12.69-5.44,17.93-.91,5.25-.92,10.44-.04,15.57,2.77,18.54,14.11,33.55,34.03,45.05l45.9,26.5,116-200.92-45.9-26.5c-19.92-11.5-38.59-13.81-56.03-6.95-4.88,1.8-9.37,4.4-13.46,7.82-4.08,3.42-8.36,7.98-12.81,13.68-4.45,5.71-9.36,12.88-14.73,21.52-5.37,8.65-11.56,19.02-18.56,31.14s-12.89,22.68-17.69,31.64Z" style="fill:#4186f1;"/></g><g id="Layer_1_copy_2"><path d="M321.98,657.2c-12.16-.34-23.33-1.17-33.5-2.5-10.16-1.34-19.5-3.59-28-6.75-8.5-3.17-16.58-7.42-24.25-12.75-18-12.67-31.16-27.67-39.5-45-8.33-17.34-12.5-38.17-12.5-62.5v-128.5h356v128.5c0,24.33-4.16,45.16-12.5,62.5-8.33,17.33-21.5,32.33-39.5,45-7.66,5.33-15.75,9.58-24.25,12.75-8.5,3.16-17.83,5.41-28,6.75-10.16,1.33-21.33,2.16-33.5,2.5-12.16,.33-25.58,.5-40.25,.5s-28.08-.17-40.25-.5Zm76.5-69.5c10.17-.34,18.84-1,26-2,7.17-1,13.25-2.42,18.25-4.25,5-1.84,9.5-4.42,13.5-7.75,14.67-11.67,22-29,22-52v-53H246.23v53c0,23,7.34,40.33,22,52,4,3.33,8.5,5.91,13.5,7.75,5,1.83,11.09,3.25,18.25,4.25,7.17,1,15.84,1.66,26,2,10.17,.33,22.25,.5,36.25,.5s26.09-.17,36.25-.5Z" style="fill:#fbbd03;"/></g></svg>