<?xml version="1.0" encoding="UTF-8"?><svg id="Layer_1" xmlns="http://www.w3.org/2000/svg" viewBox="0 0 2569.3 824.42">
  <style>
    #text path {fill: #000;}
  </style>
  <path d="M708.36,174.78c7.34,12.71,13.89,24.41,19.69,35.11,5.79,10.71,10.65,20.8,14.58,30.26,3.93,9.48,6.64,18.68,8.15,27.62,1.5,8.95,1.87,18.08,1.08,27.38-1.97,21.92-8.38,40.83-19.22,56.71-10.85,15.89-26.81,29.91-47.88,42.08l-111.28,64.25L395.5,149.88l111.28-64.25c21.07-12.16,41.2-18.97,60.38-20.42,19.17-1.45,38.75,2.46,58.72,11.71,8.45,3.98,16.17,8.85,23.17,14.63,6.99,5.78,13.61,12.74,19.85,20.87,6.24,8.14,12.54,17.4,18.92,27.76,6.37,10.38,13.23,21.91,20.56,34.61Zm-60.19,34.75c-7-12.12-13.19-22.5-18.56-31.14-5.37-8.63-10.28-15.81-14.73-21.52-4.45-5.7-8.72-10.26-12.81-13.68-4.09-3.41-8.58-6.02-13.46-7.82-17.44-6.86-36.11-4.55-56.03,6.95l-45.9,26.5,116,200.92,45.9-26.5c19.92-11.5,31.26-26.51,34.03-45.05,.88-5.13,.87-10.32-.04-15.57-.92-5.24-2.72-11.22-5.44-17.93-2.72-6.7-6.47-14.54-11.27-23.52-4.8-8.97-10.69-19.52-17.69-31.64Z" style="fill:#eb4236;"/><g id="Layer_1_copy"><path d="M103.19,140.17c6.37-10.37,12.68-19.62,18.92-27.76,6.24-8.13,12.86-15.09,19.85-20.87,7-5.78,14.72-10.65,23.17-14.63,19.97-9.25,39.55-13.15,58.72-11.71,19.18,1.46,39.31,8.26,60.38,20.42l111.28,64.25L217.5,458.18l-111.28-64.25c-21.07-12.16-37.03-26.19-47.88-42.08-10.84-15.88-17.25-34.78-19.22-56.71-.78-9.3-.42-18.43,1.08-27.38,1.51-8.94,4.23-18.15,8.15-27.62,3.93-9.47,8.79-19.55,14.58-30.26,5.8-10.7,12.36-22.4,19.69-35.11,7.33-12.7,14.19-24.23,20.56-34.61Zm21.94,101c-4.79,8.98-8.55,16.81-11.27,23.52-2.72,6.71-4.53,12.69-5.44,17.93-.91,5.25-.92,10.44-.04,15.57,2.77,18.54,14.11,33.55,34.03,45.05l45.9,26.5,116-200.92-45.9-26.5c-19.92-11.5-38.59-13.81-56.03-6.95-4.88,1.8-9.37,4.4-13.46,7.82-4.08,3.42-8.36,7.98-12.81,13.68-4.45,5.71-9.36,12.88-14.73,21.52-5.37,8.65-11.56,19.02-18.56,31.14s-12.89,22.68-17.69,31.64Z" style="fill:#4186f2;"/></g><g id="Layer_1_copy_2"><path d="M355.25,716.18c-12.16-.34-23.33-1.17-33.5-2.5-10.16-1.34-19.5-3.59-28-6.75-8.5-3.17-16.58-7.42-24.25-12.75-18-12.67-31.16-27.67-39.5-45-8.33-17.34-12.5-38.17-12.5-62.5v-128.5h356v128.5c0,24.33-4.16,45.16-12.5,62.5-8.33,17.33-21.5,32.33-39.5,45-7.66,5.33-15.75,9.58-24.25,12.75-8.5,3.16-17.83,5.41-28,6.75-10.16,1.33-21.33,2.16-33.5,2.5-12.16,.33-25.58,.5-40.25,.5s-28.08-.17-40.25-.5Zm76.5-69.5c10.17-.34,18.84-1,26-2,7.17-1,13.25-2.42,18.25-4.25,5-1.84,9.5-4.42,13.5-7.75,14.67-11.67,22-29,22-52v-53h-232v53c0,23,7.34,40.33,22,52,4,3.33,8.5,5.91,13.5,7.75,5,1.83,11.09,3.25,18.25,4.25,7.17,1,15.84,1.66,26,2,10.17,.33,22.25,.5,36.25,.5s26.09-.17,36.25-.5Z" style="fill:#fcbd02;"/></g><g id="text"><path d="M863.19,86.54h94c17.6,0,35.26,2.94,53,8.8,17.73,5.87,33.73,14.74,48,26.6,14.26,11.87,25.8,26.67,34.6,44.4,8.8,17.74,13.2,38.34,13.2,61.8s-4.4,44.4-13.2,62-20.34,32.34-34.6,44.2c-14.27,11.87-30.27,20.74-48,26.6-17.74,5.87-35.4,8.8-53,8.8h-94V86.54Zm28.8,257.6h57.2c21.33,0,39.93-3.33,55.8-10,15.86-6.66,29-15.4,39.4-26.2,10.4-10.8,18.2-23.13,23.4-37,5.2-13.86,7.8-28.13,7.8-42.8s-2.6-28.93-7.8-42.8c-5.2-13.86-13-26.2-23.4-37-10.4-10.8-23.54-19.53-39.4-26.2-15.87-6.66-34.47-10-55.8-10h-57.2v232Z"/><path d="M1197.59,110.54c0,5.6-2,10.2-6,13.8s-8.4,5.4-13.2,5.4-9.2-1.8-13.2-5.4-6-8.2-6-13.8,2-10.2,6-13.8,8.4-5.4,13.2-5.4,9.2,1.8,13.2,5.4,6,8.2,6,13.8Zm-5.6,259.2h-27.2V182.54h27.2v187.2Z"/><path d="M1263.98,204.14c-.27-8-.67-15.2-1.2-21.6h26c.53,5.07,.93,10.67,1.2,16.8,.26,6.14,.4,11.2,.4,15.2h.8c5.33-10.93,13.33-19.8,24-26.6,10.66-6.8,22.66-10.2,36-10.2,3.46,0,6.6,.14,9.4,.4,2.8,.27,5.66,.8,8.6,1.6l-3.6,26c-1.6-.53-4.27-1.06-8-1.6-3.74-.53-7.47-.8-11.2-.8-7.2,0-14.14,1.33-20.8,3.99-6.67,2.66-12.47,6.85-17.4,12.57-4.94,5.72-8.94,13.03-12,21.94-3.07,8.91-4.6,19.62-4.6,32.12v95.77h-27.2V223.74c0-5.06-.14-11.6-.4-19.6Z"/><path d="M1571.58,270.54v6c0,2.14-.14,4.4-.4,6.8h-155.2c.26,9.34,2.13,18.14,5.6,26.4,3.46,8.27,8.26,15.47,14.4,21.6,6.13,6.14,13.33,11,21.6,14.6,8.26,3.6,17.2,5.4,26.8,5.4,14.13,0,26.33-3.26,36.6-9.8,10.26-6.53,18.06-14.06,23.4-22.6l20.4,16c-11.2,14.14-23.54,24.27-37,30.4-13.47,6.13-27.94,9.2-43.4,9.2-13.87,0-26.74-2.47-38.6-7.4-11.87-4.93-22.07-11.8-30.6-20.6-8.54-8.8-15.27-19.2-20.2-31.2-4.94-12-7.4-25.06-7.4-39.2s2.4-27.2,7.2-39.2c4.8-12,11.46-22.4,20-31.2,8.53-8.8,18.53-15.66,30-20.6,11.46-4.93,23.86-7.4,37.2-7.4,14.66,0,27.6,2.47,38.8,7.4,11.2,4.94,20.53,11.6,28,20,7.46,8.4,13.13,18.2,17,29.4,3.86,11.2,5.8,23.2,5.8,36Zm-27.6-8.8c-.8-17.6-6.47-32.2-17-43.8-10.54-11.6-25.54-17.4-45-17.4-9.07,0-17.47,1.67-25.2,5-7.74,3.34-14.54,7.87-20.4,13.6-5.87,5.74-10.54,12.27-14,19.6-3.47,7.34-5.47,15-6,23h127.6Z"/><path d="M1764.78,225.34c-4.54-7.2-11.14-13.13-19.8-17.8-8.67-4.66-18.07-7-28.2-7-10.94,0-20.8,1.94-29.6,5.8-8.8,3.87-16.34,9.2-22.6,16-6.27,6.8-11.07,14.8-14.4,24-3.34,9.2-5,19.14-5,29.8s1.66,20.54,5,29.6c3.33,9.07,8.06,17,14.2,23.8,6.13,6.8,13.6,12.14,22.4,16,8.8,3.87,18.66,5.8,29.6,5.8,12,0,22.13-2.26,30.4-6.8,8.26-4.53,15.06-10.4,20.4-17.6l20.4,15.2c-8,9.87-17.8,17.74-29.4,23.6-11.6,5.86-25.54,8.8-41.8,8.8-15.2,0-28.94-2.47-41.2-7.4-12.27-4.93-22.74-11.8-31.4-20.6-8.67-8.8-15.4-19.2-20.2-31.2-4.8-12-7.2-25.06-7.2-39.2s2.4-27.2,7.2-39.2c4.8-12,11.53-22.4,20.2-31.2,8.66-8.8,19.13-15.66,31.4-20.6,12.26-4.93,26-7.4,41.2-7.4,12.53,0,25.26,2.74,38.2,8.2,12.93,5.47,23.4,13.54,31.4,24.2l-21.2,15.2Z"/><path d="M1914.38,205.34h-52.8v109.2c0,6.94,.66,12.67,2,17.2,1.33,4.54,3.26,8.07,5.8,10.6,2.53,2.54,5.53,4.27,9,5.2,3.46,.94,7.2,1.4,11.2,1.4,3.73,0,7.66-.53,11.8-1.6,4.13-1.06,8.06-2.53,11.8-4.4l1.2,23.6c-4.8,1.87-9.8,3.26-15,4.2-5.2,.93-10.87,1.4-17,1.4-5.07,0-10.4-.67-16-2-5.6-1.33-10.8-3.86-15.6-7.6-4.8-3.73-8.74-8.8-11.8-15.2-3.07-6.4-4.6-14.8-4.6-25.2v-116.8h-38.8v-22.8h38.8v-52.8h27.2v52.8h52.8v22.8Z"/><path d="M1958.37,86.54h94c17.6,0,35.26,2.94,53,8.8,17.73,5.87,33.73,14.74,48,26.6,14.26,11.87,25.8,26.67,34.6,44.4,8.8,17.74,13.2,38.34,13.2,61.8s-4.4,44.4-13.2,62-20.34,32.34-34.6,44.2c-14.27,11.87-30.27,20.74-48,26.6-17.74,5.87-35.4,8.8-53,8.8h-94V86.54Zm28.8,257.6h57.2c21.33,0,39.93-3.33,55.8-10,15.86-6.66,29-15.4,39.4-26.2,10.4-10.8,18.2-23.13,23.4-37,5.2-13.86,7.8-28.13,7.8-42.8s-2.6-28.93-7.8-42.8c-5.2-13.86-13-26.2-23.4-37-10.4-10.8-23.54-19.53-39.4-26.2-15.87-6.66-34.47-10-55.8-10h-57.2v232Z"/><path d="M2292.77,110.54c0,5.6-2,10.2-6,13.8s-8.4,5.4-13.2,5.4-9.2-1.8-13.2-5.4-6-8.2-6-13.8,2-10.2,6-13.8,8.4-5.4,13.2-5.4,9.2,1.8,13.2,5.4,6,8.2,6,13.8Zm-5.6,259.2h-27.2V182.54h27.2v187.2Z"/><path d="M2436.37,369.74h-30l-76.4-187.2h30.4l60.8,158.4h.8l61.2-158.4h29.2l-76,187.2Z"/><path d="M863.19,426.54h94c17.6,0,35.26,2.94,53,8.8,17.73,5.87,33.73,14.74,48,26.6,14.26,11.87,25.8,26.67,34.6,44.4,8.8,17.74,13.2,38.34,13.2,61.8s-4.4,44.4-13.2,62c-8.8,17.6-20.34,32.34-34.6,44.2-14.27,11.87-30.27,20.74-48,26.6-17.74,5.87-35.4,8.8-53,8.8h-94V426.54Zm28.8,257.6h57.2c21.33,0,39.93-3.33,55.8-10,15.86-6.66,29-15.4,39.4-26.2,10.4-10.8,18.2-23.13,23.4-37,5.2-13.86,7.8-28.13,7.8-42.8s-2.6-28.93-7.8-42.8c-5.2-13.86-13-26.2-23.4-37-10.4-10.8-23.54-19.53-39.4-26.2-15.87-6.66-34.47-10-55.8-10h-57.2v232Z"/><path d="M1334.79,610.54v6c0,2.14-.14,4.4-.4,6.8h-155.2c.26,9.34,2.13,18.14,5.6,26.4,3.46,8.27,8.26,15.47,14.4,21.6,6.13,6.14,13.33,11,21.6,14.6,8.26,3.6,17.2,5.4,26.8,5.4,14.13,0,26.33-3.26,36.6-9.8,10.26-6.53,18.06-14.06,23.4-22.6l20.4,16c-11.2,14.14-23.54,24.27-37,30.4-13.47,6.13-27.94,9.2-43.4,9.2-13.87,0-26.74-2.47-38.6-7.4-11.87-4.93-22.07-11.8-30.6-20.6-8.54-8.8-15.27-19.2-20.2-31.2-4.94-12-7.4-25.06-7.4-39.2s2.4-27.2,7.2-39.2c4.8-12,11.46-22.4,20-31.2,8.53-8.8,18.53-15.66,30-20.6,11.46-4.93,23.86-7.4,37.2-7.4,14.66,0,27.6,2.47,38.8,7.4,11.2,4.94,20.53,11.6,28,20,7.46,8.4,13.13,18.2,17,29.4,3.86,11.2,5.8,23.2,5.8,36Zm-27.6-8.8c-.8-17.6-6.47-32.2-17-43.8-10.54-11.6-25.54-17.4-45-17.4-9.07,0-17.47,1.67-25.2,5-7.74,3.34-14.54,7.87-20.4,13.6-5.87,5.74-10.54,12.27-14,19.6-3.47,7.34-5.47,15-6,23h127.6Z"/><path d="M1492.78,566.94c-4-7.73-10.07-14.06-18.2-19-8.14-4.93-17.4-7.4-27.8-7.4-4.8,0-9.6,.54-14.4,1.6-4.8,1.07-9.07,2.8-12.8,5.2-3.74,2.4-6.74,5.47-9,9.2-2.27,3.74-3.4,8.14-3.4,13.2,0,8.8,3.6,15.54,10.8,20.2,7.2,4.67,18.53,8.6,34,11.8,22.13,4.54,38.46,11.14,49,19.8,10.53,8.67,15.8,20.34,15.8,35,0,10.67-2.07,19.67-6.2,27-4.14,7.34-9.54,13.34-16.2,18-6.67,4.67-14.2,8-22.6,10-8.4,2-16.87,3-25.4,3-14.14,0-27.87-2.94-41.2-8.8-13.34-5.86-24.27-15.06-32.8-27.6l21.6-16c4.8,8.27,11.86,15.2,21.2,20.8,9.33,5.6,19.6,8.4,30.8,8.4,5.86,0,11.46-.53,16.8-1.6,5.33-1.06,10-2.93,14-5.6,4-2.66,7.2-6.06,9.6-10.2,2.4-4.13,3.6-9.26,3.6-15.4,0-9.86-4.74-17.26-14.2-22.2-9.47-4.93-23.14-9.53-41-13.8-5.6-1.33-11.54-3-17.8-5-6.27-2-12.07-4.93-17.4-8.8-5.34-3.86-9.74-8.73-13.2-14.6-3.47-5.86-5.2-13.2-5.2-22,0-9.6,1.86-17.8,5.6-24.6,3.73-6.8,8.73-12.4,15-16.8,6.26-4.4,13.4-7.66,21.4-9.8,8-2.13,16.26-3.2,24.8-3.2,13.06,0,25.73,2.94,38,8.8,12.26,5.87,21.46,14.14,27.6,24.8l-20.8,15.6Z"/><path d="M1603.98,450.54c0,5.6-2,10.2-6,13.8s-8.4,5.4-13.2,5.4-9.2-1.8-13.2-5.4-6-8.2-6-13.8,2-10.2,6-13.8,8.4-5.4,13.2-5.4,9.2,1.8,13.2,5.4,6,8.2,6,13.8Zm-5.6,259.2h-27.2v-187.2h27.2v187.2Z"/><path d="M1680.78,747.34c7.46,9.6,17.66,17.73,30.6,24.4,12.93,6.66,26.6,10,41,10,13.33,0,24.66-1.94,34-5.8,9.33-3.87,16.86-9.14,22.6-15.8,5.73-6.67,9.93-14.47,12.6-23.4,2.66-8.94,4-18.47,4-28.6v-35.2h-.8c-7.2,11.74-17.4,20.8-30.6,27.2-13.2,6.4-26.6,9.6-40.2,9.6-14.67,0-27.94-2.4-39.8-7.2-11.87-4.8-22-11.4-30.4-19.8s-14.94-18.46-19.6-30.2c-4.67-11.73-7-24.4-7-38s2.33-25.86,7-37.6c4.66-11.73,11.2-22,19.6-30.8s18.53-15.73,30.4-20.8c11.86-5.06,25.13-7.6,39.8-7.6,13.6,0,26.93,3.2,40,9.6,13.06,6.4,23.33,15.6,30.8,27.6h.8v-32.4h27.2v185.6c0,10.13-1.4,20.93-4.2,32.4-2.8,11.46-8,22-15.6,31.6-7.6,9.6-17.94,17.6-31,24-13.07,6.4-30,9.6-50.8,9.6-17.34,0-33.87-3.34-49.6-10-15.74-6.67-29.2-15.87-40.4-27.6l19.6-20.8Zm5.2-133.6c0,9.87,1.6,19.2,4.8,28s7.8,16.54,13.8,23.2c6,6.67,13.4,11.94,22.2,15.8,8.8,3.87,18.8,5.8,30,5.8,10.4,0,20-1.73,28.8-5.2,8.8-3.46,16.4-8.4,22.8-14.8,6.4-6.4,11.4-14.06,15-23,3.6-8.93,5.4-18.86,5.4-29.8,0-9.86-1.8-19.2-5.4-28-3.6-8.8-8.6-16.53-15-23.2-6.4-6.66-14-12-22.8-16s-18.4-6-28.8-6c-11.2,0-21.2,2-30,6s-16.2,9.34-22.2,16c-6,6.67-10.6,14.4-13.8,23.2s-4.8,18.14-4.8,28Z"/><path d="M1947.97,522.54c.53,5.07,.93,10.67,1.2,16.8,.26,6.14,.4,11.2,.4,15.2h.8c5.33-10.93,14-19.8,26-26.6,12-6.8,24.66-10.2,38-10.2,23.73,0,41.53,7.07,53.4,21.2,11.86,14.14,17.8,32.8,17.8,56v114.8h-27.2v-103.6c0-9.86-.8-18.8-2.4-26.8-1.6-8-4.34-14.86-8.2-20.6-3.87-5.73-9.07-10.2-15.6-13.4-6.54-3.2-14.74-4.8-24.6-4.8-7.2,0-14.2,1.47-21,4.4-6.8,2.94-12.87,7.4-18.2,13.4-5.34,6-9.6,13.6-12.8,22.8s-4.8,20.07-4.8,32.6v96h-27.2v-146c0-5.06-.14-11.6-.4-19.6-.27-8-.67-15.2-1.2-21.6h26Z"/></g></svg>