<?xml version="1.0" encoding="UTF-8"?><svg id="Layer_1" xmlns="http://www.w3.org/2000/svg" viewBox="0 0 696 768"><path d="M132.18,317.97c35.2,46.69,72.57,91.72,115.08,132.02,8.01-34.76,19.13-60.2,38.36-90.1-41.29-36.45-79.84-76.03-117.75-115.97h-.89c-3.58,11.14-10.1,44.88-13.38,51.29-3.34,6.54-17.13,15.88-21.41,22.75Z" style="fill:#b26356; stroke-width:0px;"/><path d="M58.14,165.42c-6.47,2.1-10.59,13.88-8.03,19.63,19.63,48.81,50.61,91.19,82.07,132.92,4.28-6.87,18.07-16.21,21.41-22.75,3.28-6.41,9.8-40.15,13.38-51.29-19.49-17.6-67.93-87.91-82.07-96.34-3.34,4.02-19.95,18.54-21.86,19.63-2.77,1.58-3.97,2.37-4.91-1.78Z" style="fill:#dc886a; stroke-width:0px;"/><path d="M292.75,708.69c-2.95,1.28-5.3,1.27-6.24,5.35-1.58,6.81,1.34,28.34,3.57,35.68.51,1.69-.09,5.49,2.23,7.14,6.09.12,12.2-.16,18.29,0,.89.02,1.78-.02,2.68,0,.3-4.59-1.14-8.91-1.78-13.38-1.88-13.06-3.72-26.16-5.35-39.25-6.67,2.82-12.73,4.18-13.38,4.46Z" style="fill:#771f2a; stroke-width:0px;"/><path d="M169.65,242.14c5.04-12.03,5.94-50.77,30.33-86.08,19.37-28.05,58.05-57.42,84.3-79.84q16.5,21.86,33.01,43.71c40.97-22.91,86.76-37.15,133.81-38.36,24.2-.62,48.17,4.79,72.26,2.68-13.15,21.49-28.23,41.89-38.36,65.12l91.44-18.29q-41.03,39.25-82.07,78.5,27.65,7.81,55.31,15.61c15.15-15.53,41.81-60.03,57.98-70.47,1.57-1.02,2.75-2.23,4.01-3.57,1.6,2.24,2.96,1.7,3.12,1.78,5.67-15.38-9.58-39.09-5.35-54.42,3.39-5.24-14.34-20.21-20.96-25.87C505.39,1.73,403.92-.91,301.23,17.34c-78.13,13.89-183.27,48.2-214.54,128.9,30.83,29.2,50.4,68.39,82.96,95.9Z" style="fill:#4186f1; opacity:.3; stroke-width:0px;"/><path d="M466.7,470.51c5.29,43.37.34,107.79-2.68,152.54,2.25-.78,1.69-.86,1.78-.89q.89-17.17,1.78-34.34c137.42-91.73,219.11-178.42,165.03-354.15,1.82-13.97,10.68-28.07,10.7-41.48-19.02,88.82-113.22,212.08-176.63,278.32Z" style="fill:#4186f1; opacity:.3; stroke-width:0px;"/><path d="M235.66,525.82c3.73-17.46,4.26-43.97,11.6-75.83-42.51-40.31-79.87-85.34-115.08-132.02-31.46-41.73-62.44-84.11-82.07-132.92-13.31,73.61-15.59,109.55,20.52,176.18,31.01,57.22,90.42,121.45,138.72,165.48q13.16-.45,26.32-.89Z" style="fill:#4186f1; opacity:.3; stroke-width:0px;"/><path d="M169.65,242.14c-.35.83-.78,1.69-1.78,1.78,37.91,39.94,76.46,79.52,117.75,115.97q17.84-3.12,35.68-6.24c-13.76-12.64-27.94-41.13-29.44-59.77-17.78-2.43-19.69-27.13-.89-29.44.01-.47,1.27,3.24,1.78-8.03.1-2.15.96-3.33.89-5.35.15-2.95-.21-5.98,0-8.92.22-2.99.68-6.02.89-8.92-2.48-4.04-14.88-28.23-15.17-29.88-.02-.14,1.23-2.19,1.78-2.23-7.6-27.92,5.15-58.33,37.91-45.5,9.02-22.2,36.75-23.34,51.74-6.24.99.15,5.41-3.14,10.26-3.57,24.49-2.14,27.03,17.92,28.99,18.73,19.84-2.51,37.87,12.52,38.8,32.56.72,15.42-17.53,60.17-18.73,71.81-.47,4.58,2.48,4.77,2.68,6.69,1.47,14.49-7.54,21.61-21.41,20.07.3,8.22-13.74,35.56-19.63,42.82,17.65,3.3,19.41,10.82,28.55,24.98.28-.16,2.26-.31,6.24-1.78,8.44-3.11,16.96-5.6,25.87-1.78,33.55-44.02,67.69-87.84,97.23-134.7q-27.65-7.81-55.31-15.61,41.03-39.25,82.07-78.5l-91.44,18.29c10.13-23.23,25.2-43.63,38.36-65.12-24.08,2.11-48.06-3.3-72.26-2.68-47.05,1.21-92.84,15.45-133.81,38.36q-16.5-21.86-33.01-43.71c-26.25,22.42-64.93,51.79-84.3,79.84-24.39,35.32-25.29,74.05-30.33,86.08Z" style="fill:#fff; opacity:.15; stroke-width:0px;"/><path d="M294.54,233.22c.06-.88-.07-1.79,0-2.68.08-1.02-.12-2.45,0-3.57-3.22-7.28-11.43-18.72-13.38-25.87-.56.04-1.81,2.09-1.78,2.23.29,1.65,12.69,25.84,15.17,29.88Z" style="fill:#b6c8e0; stroke-width:0px;"/><path d="M434.59,439.29c-5.79,8-18.17,77.2-20.52,91.88-5.11,31.93-9.2,64-10.7,96.34q24.53,0,49.06,0c4.4.15,7.69-3.11,11.6-4.46,3.02-44.76,7.97-109.17,2.68-152.54-2.01-16.52-7.16-32.23-11.6-48.17-6.28,6.08-13.61,11.59-20.52,16.95Z" style="fill:#934249; stroke-width:0px;"/><path d="M628.17,173.45c-.74,8.25-27.26,59.6-30.33,61.11-1.47.72-.1-1.79-2.68-1.34-19.37,54.4-75.09,121.17-115.08,163.25-8.31,8.74-16.3,17.46-24.98,25.87,4.43,15.94,9.58,31.65,11.6,48.17,63.41-66.24,157.61-189.51,176.63-278.32,2.54-11.88,5.35-9.98-6.24-19.63.88,8.14-.1,6.75-8.92.89Z" style="fill:#934249; stroke-width:0px;"/><path d="M607.65,154.72c1.63,2.3,3.29,5.23,5.35,7.14.7.65,13.92,10.77,15.17,11.6,8.82,5.86,9.8,7.24,8.92-.89-.05-.42-2.54-4.63-2.68-8.03-1.4.73-2.11,2.23-4.01,1.78-.6-.14-6.99-6.38-9.37-8.03-5.22-3.63-5.88-5.16-6.24-5.35-.16-.09-1.52.45-3.12-1.78-1.27,1.34-2.44,2.55-4.01,3.57Z" style="fill:#771f2a; stroke-width:0px;"/><path d="M549.67,225.19c-29.55,46.86-63.68,90.68-97.23,134.7,1.82,2.41-.74,5.3-2.68,7.14,1.21,1.01,2.59,1.82,3.57,3.12-.57,3.77-1.91,7.44-2.68,11.15q14.72,7.58,29.44,15.17c39.98-42.08,95.7-108.85,115.08-163.25,8.25-23.18,12.34-47.48,17.84-71.36-2.07-1.91-3.73-4.83-5.35-7.14-16.17,10.44-42.84,54.95-57.98,70.47Z" style="fill:#cb7865; stroke-width:0px;"/><path d="M450.65,381.3c-2.14,10.42-13.01,45.77-16.95,56.2l.89,1.78c6.91-5.36,14.24-10.87,20.52-16.95,8.68-8.41,16.67-17.13,24.98-25.87q-14.72-7.58-29.44-15.17Z" style="fill:#b26356; stroke-width:0px;"/><path d="M595.16,233.22c2.58-.45,1.21,2.06,2.68,1.34,3.07-1.51,29.59-52.86,30.33-61.11-1.25-.83-14.46-10.95-15.17-11.6-5.5,23.88-9.59,48.19-17.84,71.36Z" style="fill:#b26356; stroke-width:0px;"/><path d="M162.51,615.92c2.22,13.34,6.16,26.56,7.14,40.14l2.68.89c6.89-.51,13.67.49,20.52.89,12.08.7,24.44.33,36.57.89,3.13-3.52-12.04-.84-12.49-4.01,29.05-40.06,54.77-82.36,77.61-126.23-19.62-.12-39.25.03-58.88,0-28.24-.05-56.5-1.08-84.75-.45,2.77,29.34,6.77,58.81,11.6,87.87Z" style="fill:#d2d2dc; stroke-width:0px;"/><path d="M294.54,528.49c-22.84,43.87-48.56,86.17-77.61,126.23.45,3.17,15.62.49,12.49,4.01,16.06.74,32.1,1.33,48.17,1.78,29.84-40.6,54.55-85.06,75.83-130.69,11.95-.03,27.71-2.98,28.55,3.12-.19-1.12.12-2.41,0-3.57-28.44-1.14-57.18-1.61-85.64-1.78-.1,0,.56.91-1.78.89Z" style="fill:#d2d2dc; stroke-width:0px;"/><path d="M277.59,660.52c26.56.75,77.34,3.86,100.8,1.78,1.56-.14,3.95-1.46,5.8,0,3.07-1.09,2.89-3.52,4.91-4.46q4.91-15.17,9.81-30.33c-5.19-31.59-11.7-62.99-16.95-94.56-.84-6.1-16.6-3.15-28.55-3.12-21.28,45.63-45.99,90.09-75.83,130.69Z" style="fill:#a3b5c3; stroke-width:0px;"/><path d="M19.78,125.28c1.02-2.88-.2-7.37,2.68-8.03-6.32-17.85,8.97,13.85,24.53,10.7,10.64-2.15,1.84-14.09,2.23-15.61.27-1.05,15.12-11.11,17.4-12.93,2.04,1.2-14.98,31.14-16.5,32.11,4.14,7.16,10.2,18.55,16.06,23.19,1.31-1.14,9.25-7.75,9.81-8.03-4.65-.37,1.45-12.75-1.78-23.64,2.95-12.54,9-27.54-3.57-36.13-6.76,1.09-12.74,2.01-18.29,6.24l10.26-9.81c-16.53-7.45-24.16-10.01-31.67,9.81-16.38,2.51-20.48,19.22-11.15,32.11Z" style="fill:#f59077; stroke-width:0px;"/><path d="M19.78,125.28c10.33,14.28,26.91,22.61,39.25,34.79.48-.8,5.62-4.04,7.14-5.35-5.85-4.65-11.92-16.04-16.06-23.19-6.51,4.15-24.55-5.49-27.65-14.27-2.88.66-1.66,5.15-2.68,8.03Z" style="fill:#e06c68; stroke-width:0px;"/><path d="M75.98,146.69c-.57.28-8.5,6.89-9.81,8.03-1.51,1.31-6.66,4.55-7.14,5.35-.94,1.57-1.28,3.63-.89,5.35.94,4.15,2.14,3.36,4.91,1.78,1.9-1.09,18.52-15.6,21.86-19.63-1.37-.82-2.66-1.82-4.01-2.68-1.28-.1-3.63,1.15-4.91,1.78Z" style="fill:#902630; stroke-width:0px;"/><path d="M70.63,86.92c-2.44-1.67-5.37-2.37-8.03-3.57l-10.26,9.81c5.55-4.23,11.52-5.16,18.29-6.24Z" style="fill:#c14647; stroke-width:0px;"/><path d="M22.46,117.25c3.11,8.78,21.15,18.43,27.65,14.27,1.53-.97,18.54-30.92,16.5-32.11-2.27,1.83-17.12,11.89-17.4,12.93-.39,1.52,8.41,13.46-2.23,15.61-15.56,3.14-30.85-28.55-24.53-10.7Z" style="fill:#aa383f; stroke-width:0px;"/><path d="M609.43,98.52c-4.23,15.32,11.02,39.03,5.35,54.42.36.19,1.03,1.73,6.24,5.35q7.58-11.6,15.17-23.19c-8.73-2.56-22.92-44.29-14.27-33.45.54.67,6.94,13.04,8.03,15.17.48.93-1.89,2.29.89,7.14,7.58,13.2,29.22-1.01,28.55-18.29-.39-9.95-6.62-10.13-8.03-15.17-19.31-15.53-20.45-16.01-41.93,8.03Z" style="fill:#f59077; stroke-width:0px;"/><path d="M659.39,105.66c3.34-1.61,7.22,13.15,0,21.86-3.94,4.75-17.65,9.21-23.19,7.58q-7.58,11.6-15.17,23.19c2.38,1.65,8.77,7.89,9.37,8.03,1.91.45,2.62-1.05,4.01-1.78,4.88-2.57,38.61-34.73,39.25-45.05.56-8.97-15.47-23.5-22.3-28.99,1.4,5.04,7.64,5.21,8.03,15.17Z" style="fill:#e06c68; stroke-width:0px;"/><path d="M636.2,135.09c5.54,1.63,19.25-2.83,23.19-7.58,7.22-8.7,3.34-23.46,0-21.86.67,17.28-20.96,31.49-28.55,18.29-2.78-4.84-.41-6.2-.89-7.14-1.09-2.13-7.49-14.49-8.03-15.17-8.65-10.84,5.55,30.89,14.27,33.45Z" style="fill:#c14647; stroke-width:0px;"/><path d="M391.77,529.39c-3.25-.19-6.56.13-9.81,0,.12,1.15-.19,2.45,0,3.57,5.24,31.57,11.76,62.97,16.95,94.56h4.46c1.5-32.34,5.6-64.41,10.7-96.34-7.37-.83-14.9-1.34-22.3-1.78Z" style="fill:#ba4657; stroke-width:0px;"/><path d="M95.61,699.77c-1.57-33.97,6.01-67.13,8.92-100.8-30.52-1.58-54.7,12.1-49.96,45.94,2.71,19.32,26.82,42.42,41.03,54.86Z" style="fill:#5d77a0; stroke-width:0px;"/><path d="M104.53,598.97c-2.91,33.67-10.49,66.84-8.92,100.8,12.25,10.73,24.41,19.34,38.36,27.65-7.86-38.1-11.33-77.14-16.95-115.52q1.34-.22,2.68-.45c-1.24-3.04-2.44-5.81-3.57-8.92-.28-.78-.82-1.06-.89-1.78-2.97-.53-8.09-1.65-10.7-1.78Z" style="fill:#3c537d; stroke-width:0px;"/><path d="M133.97,727.42c.41.25.98,1.62,8.03,5.35,3.65,1.93,6.94,3.62,10.7,5.35-11.8-42.01-16.49-86.07-33.01-126.67q-1.34.22-2.68.45c5.62,38.38,9.09,77.42,16.95,115.52Z" style="fill:#3c537d; stroke-width:0px;"/><path d="M115.23,600.75c.07.72.61,1.01.89,1.78.76.1,1.75-.19,2.23,0,3.45,1.35,45.73,46.47,51.29,53.52-.98-13.59-4.92-26.81-7.14-40.14-13.32-4.63-34.21-12.82-47.28-15.17Z" style="fill:#282b4e; stroke-width:0px;"/><path d="M172.32,656.95c.2,1.28-1.72.64-1.78,1.34-.33,3.84,14.95,54.78,17.84,74.93.67,4.64,1.85,15.36,0,18.29,2.41.8,4.92,1.11,7.14,1.78-5.91-10.84-1.09-34.17,6.24-43.26,10.74-13.33,17.82-5.01,26.76-1.34,11.59,4.76,22.54,10.25,34.79,13.38,4.02,1.03,8.28,2,12.49,1.78,1.79-5.43,8.15-10.94,10.7-9.81.95-4.08,3.29-4.07,6.24-5.35-30.71-21.71-63.72-40.19-99.91-50.85-6.84-.4-13.62-1.41-20.52-.89Z" style="fill:#282b4e; stroke-width:0px;"/><path d="M116.12,602.53c1.13,3.11,2.33,5.88,3.57,8.92,16.52,40.6,21.21,84.66,33.01,126.67,10.68,4.91,24.4,9.65,35.68,13.38,1.85-2.93.67-13.65,0-18.29-2.9-20.15-18.17-71.09-17.84-74.93.06-.7,1.98-.06,1.78-1.34l-2.68-.89c-5.57-7.06-47.84-52.17-51.29-53.52-.48-.19-1.47.1-2.23,0Z" style="fill:#2e3c63; stroke-width:0px;"/><path d="M192.84,657.84c36.19,10.65,69.2,29.14,99.91,50.85.65-.28,6.71-1.64,13.38-4.46,2.9-1.23,4.25-.8,4.46-.89,23.98-10.49,45.19-27.88,67.8-41.03-23.47,2.08-74.25-1.03-100.8-1.78-16.08-.46-32.11-1.05-48.17-1.78-12.14-.56-24.5-.19-36.57-.89Z" style="fill:#0d182c; stroke-width:0px;"/><path d="M540.75,606.99c11.6,23.41-13.44,44.05-29.88,57.98-55.19,46.77-128.74,69.5-199.38,78.5.65,4.47,2.08,8.79,1.78,13.38,14.05.29,27.9-.34,41.93-.89,54.94-2.17,79.36-4.88,131.13-24.09,39.57-14.68,89.95-36.73,84.75-87.87-1.58-15.51-13.3-34.35-29.44-37.91-1.09-.1-.84.86-.89.89Z" style="fill:#0d182c; stroke-width:0px;"/><path d="M465.81,622.16c-.09.03.46.12-1.78.89-3.91,1.35-7.19,4.61-11.6,4.46-21.64,8.98-42.13,20.47-63.34,30.33-2.02.94-1.83,3.37-4.91,4.46-1.84-1.46-4.24-.14-5.8,0-22.61,13.15-43.82,30.55-67.8,41.03,31.39,16.15,115.88-29.15,148.53-47.28,11.49-6.38,73-43.24,81.62-49.06.05-.04-.2-.99.89-.89-27.87-6.16-50.86,7.23-75.83,16.06Z" style="fill:#5d77a0; stroke-width:0px;"/><path d="M310.59,703.34c-.21.09-1.56-.34-4.46.89,1.63,13.09,3.47,26.19,5.35,39.25,70.64-9,144.18-31.73,199.38-78.5,16.45-13.94,41.49-34.57,29.88-57.98-8.63,5.82-70.14,42.69-81.62,49.06-32.65,18.12-117.13,63.43-148.53,47.28Z" style="fill:#2e3c63; stroke-width:0px;"/><path d="M403.37,627.51h-4.46q-4.91,15.17-9.81,30.33c21.21-9.86,41.69-21.35,63.34-30.33q-24.53,0-49.06,0Z" style="fill:#7894ae; stroke-width:0px;"/><path d="M197.3,754.18c.21.06.54,1.95,3.57,2.68,1.65.4,3.54.65,4.91,1.78,34.93-.66,70.02,1.62,104.82-1.78-6.09-.16-12.2.12-18.29,0-2.32-1.64-1.72-5.44-2.23-7.14-5.87.95-12.11-.89-17.84-.89-15.12,0-54.32-.34-61.55,0-3.48.16-16.18,1.99-13.38,5.35Z" style="fill:#cad7e5; stroke-width:0px;"/><path d="M195.52,753.29c.76.23,1.03.67,1.78.89-2.8-3.36,9.9-5.19,13.38-5.35-3.04-11.48.97-22.25,8.03-31.22,3.38-4.29,4.56-6.22,9.81-8.92-8.94-3.67-16.02-11.99-26.76,1.34-7.33,9.1-12.16,32.43-6.24,43.26Z" style="fill:#f0eff3; stroke-width:0px;"/><path d="M275.8,723.85c-1.98,6.01-1.3,18.01-3.57,24.98,5.73,0,11.97,1.84,17.84.89-2.23-7.34-5.15-28.87-3.57-35.68-2.55-1.12-8.92,4.38-10.7,9.81Z" style="fill:#fcf4ef; stroke-width:0px;"/><path d="M218.71,717.61c-7.06,8.97-11.07,19.75-8.03,31.22,7.23-.34,46.43,0,61.55,0,2.27-6.97,1.59-18.97,3.57-24.98-4.21.21-8.46-.76-12.49-1.78,2.54,6.96-32.64-3.66-44.6-4.46Z" style="fill:#7f4176; stroke-width:0px;"/><path d="M218.71,717.61c11.96.8,47.14,11.42,44.6,4.46-12.25-3.13-23.2-8.62-34.79-13.38-5.25,2.7-6.44,4.63-9.81,8.92Z" style="fill:#712f66; stroke-width:0px;"/><path d="M285.62,359.89c-19.23,29.9-30.35,55.34-38.36,90.1-7.34,31.86-7.87,58.36-11.6,75.83-.18.83.1,1.82,0,2.68,19.62.03,39.25-.12,58.88,0,2.34.01,1.68-.89,1.78-.89,12.77-31.4,19.41-54.61,37.47-84.3,6.76-11.12,17.18-21.81,21.41-33.45-11.77,1.72-23.67-.93-33.45-8.03-17.39-12.6-7.21-17.82.45-41.93.05-1.88.6-2.77.89-4.46-.74-.6-1.08-1.14-1.78-1.78q-17.84,3.12-35.68,6.24Z" style="fill:#f1b3aa; stroke-width:0px;"/><path d="M420.32,363.46c-.28.15-2.81,3.22-4.46,4.46-10.01,7.51-24.04,25.04-44.6,35.68-6.04,3.12-8.94,5.21-16.06,6.24-4.23,11.64-14.65,22.33-21.41,33.45-18.05,29.69-24.7,52.9-37.47,84.3,28.46.18,57.2.64,85.64,1.78,3.26.13,6.56-.19,9.81,0,11.77-27.9,31.7-64.84,41.93-91.88,3.94-10.42,14.81-45.78,16.95-56.2.76-3.71,2.11-7.38,2.68-11.15-.98-1.3-2.36-2.11-3.57-3.12-6.65-5.56-15.4-3.42-23.19-5.35-3.99,1.47-5.96,1.63-6.24,1.78Z" style="fill:#df908e; stroke-width:0px;"/><path d="M381.07,145.8c6.39,5.83,8.82,4.17,9.37,4.46,7.19,3.78,3.01,22.17-8.92,26.76-18.6,7.15-30.23-10.81-39.25-9.81-3.39.38-12.48,8.4-18.73,9.81-11.5,2.61-27.18-4.45-33.45,10.26-5.08,11.91.66,20.5,1.78,31.22,2.15,1.64,1.94-1.47,4.46-4.91.17-.23-.58-2.68,1.34-3.57,4.62-2.14,35.23.65,36.57-12.49q8.92,1.34,17.84,2.68c10.27,15.72,31.83,12.2,45.94,21.86-1.66,13.25-2.49,26.37-.89,39.7.41,3.4-1.05,8.74,1.34,9.81,2.98-.3,11.19,1.13,12.93,2.68,1.38-10.02,3.99-13.93,13.38-8.92,2.11,1.13,3.58,1.93,5.35,3.57,1.2-11.64,19.45-56.4,18.73-71.81-.94-20.04-18.96-35.07-38.8-32.56-1.96-.82-4.5-20.87-28.99-18.73Z" style="fill:#0b0d19; stroke-width:0px;"/><path d="M281.16,201.11c1.95,7.15,10.16,18.59,13.38,25.87.47-4.42,1.21-8.96,1.78-13.38-2.52,3.44-2.31,6.55-4.46,4.91-1.12-10.72-6.87-19.31-1.78-31.22,6.27-14.7,21.95-7.65,33.45-10.26,6.25-1.42,15.34-9.44,18.73-9.81,9.02-1,20.65,16.97,39.25,9.81,11.93-4.59,16.11-22.98,8.92-26.76-.55-.29-2.98,1.37-9.37-4.46-4.85.42-9.27,3.72-10.26,3.57-14.99-17.1-42.72-15.96-51.74,6.24-32.77-12.84-45.51,17.57-37.91,45.5Z" style="fill:#221529; stroke-width:0px;"/><path d="M426.56,361.68c7.79,1.94,16.54-.21,23.19,5.35,1.93-1.84,4.5-4.72,2.68-7.14-8.91-3.81-17.43-1.33-25.87,1.78Z" style="fill:#b26356; stroke-width:0px;"/><path d="M391.77,529.39c7.4.44,14.93.95,22.3,1.78,2.35-14.69,14.73-83.88,20.52-91.88l-.89-1.78c-10.23,27.05-30.16,63.98-41.93,91.88Z" style="fill:#ce5960; stroke-width:0px;"/><path d="M389.09,341.16c1.06,2.4.67,4.69.89,7.14.32,3.56.78,7.13.89,10.7,1.18-1.22,3.36-2.31,4.46-3.57,1.72-1.95,7.35-12.36,8.47-11.6,2.41,7.6,5.79,18.85,12.04,24.09,1.65-1.24,4.19-4.31,4.46-4.46-9.14-14.15-10.89-21.67-28.55-24.98-.12.15-1.61,1.52-2.68,2.68Z" style="fill:#86285e; stroke-width:0px;"/><path d="M390.88,359c-8.88,9.15-18.02,16.07-28.55,23.19-6.66,4.5-13.13,9.31-20.07,13.38-7.47-8.87-20.39-24.14-20.07-35.68-7.65,24.11-17.83,29.32-.45,41.93,9.79,7.09,21.68,9.75,33.45,8.03,7.12-1.04,10.02-3.12,16.06-6.24-1.13.09-1.15-1.61-.89-2.23.88-2.17,32.17-24.82,35.68-30.33l-10.7-15.61c-1.1,1.25-3.28,2.35-4.46,3.57Z" style="fill:#b4447f; stroke-width:0px;"/><path d="M395.34,355.43l10.7,15.61c-3.51,5.51-34.8,28.16-35.68,30.33-.25.62-.23,2.32.89,2.23,20.56-10.64,34.59-28.18,44.6-35.68-6.26-5.24-9.63-16.49-12.04-24.09-1.13-.76-6.76,9.65-8.47,11.6Z" style="fill:#9c386f; stroke-width:0px;"/><path d="M350.74,358.11c11.89,4.37,29.84-7.73,38.36-16.95,1.07-1.15,2.56-2.53,2.68-2.68,5.89-7.26,19.93-34.6,19.63-42.82-.02-.52-1,.64-1.78-5.35-.07-.5-3.16-3.57-1.78-6.69.25-.56,9.67-3.93,3.57-9.37-1.74-1.55-9.95-2.98-12.93-2.68-2.39-1.07-.93-6.41-1.34-9.81-6.88.62-3.34,11.6-7.14,27.21-4.79,19.67-21.47,58.3-39.25,69.13Z" style="fill:#e06c68; stroke-width:0px;"/><path d="M291.86,293.88c-.5-6.17-1.03-23.36-.89-29.44-18.8,2.31-16.89,27.01.89,29.44Z" style="fill:#f59077; stroke-width:0px;"/><path d="M409.61,290.31c.78,6,1.77,4.84,1.78,5.35,13.87,1.54,22.88-5.58,21.41-20.07-.19-1.92-3.15-2.11-2.68-6.69-1.77-1.64-3.24-2.44-5.35-3.57-8.29-5.77,9.87,18.83-6.69,24.98-2.95,1.09-5.5,1.09-8.47,0Z" style="fill:#ce5960; stroke-width:0px;"/><path d="M350.74,358.11c-11.41,6.95-17.57,5.52-27.65-2.68-.29,1.7-.84,2.58-.89,4.46,4.04,4,8.51,6.94,13.38,9.81,37.29.67,48.39-20.26,53.08-22.3.13-.06.67,1.08,1.34.89-.22-2.45.16-4.73-.89-7.14-8.51,9.22-26.47,21.32-38.36,16.95Z" style="fill:#ba4657; stroke-width:0px;"/><path d="M411.4,274.26c6.1,5.43-3.32,8.81-3.57,9.37-1.37,3.12,1.72,6.19,1.78,6.69,2.98,1.09,5.53,1.09,8.47,0,16.56-6.15-1.6-30.75,6.69-24.98-9.39-5.01-12-1.1-13.38,8.92Z" style="fill:#fba78c; stroke-width:0px;"/><path d="M335.57,369.71c9.72,5.73,16.01,8.63,26.76,12.49,10.53-7.13,19.67-14.04,28.55-23.19-.12-3.58-.57-7.14-.89-10.7-.66.19-1.21-.95-1.34-.89-4.69,2.05-15.79,22.97-53.08,22.3Z" style="fill:#ce5960; stroke-width:0px;"/><path d="M362.33,382.2c-10.75-3.86-17.04-6.76-26.76-12.49-4.88-2.87-9.34-5.81-13.38-9.81-.32,11.54,12.6,26.81,20.07,35.68,6.94-4.07,13.42-8.88,20.07-13.38Z" style="fill:#f59077; stroke-width:0px;"/><path d="M296.32,213.6c-.57,4.42-1.31,8.96-1.78,13.38-.12,1.11.08,2.54,0,3.57,2.46-2.59,2.33-6.56,4.46-9.37,12.46-16.42,33.6,7.96,22.75,7.58-4.92-.17-17.17-13.32-28.1,13.38-.21,2.94.15,5.97,0,8.92,13.29-12.58,26.22,6.4,18.29,6.24-1.18-.02-8.85-14.12-19.18-.89-.52,11.26-1.77,7.56-1.78,8.03-.14,6.08.4,23.27.89,29.44,1.5,18.64,15.68,47.13,29.44,59.77.7.64,1.04,1.18,1.78,1.78,10.08,8.2,16.25,9.63,27.65,2.68,17.78-10.84,34.46-49.47,39.25-69.13,3.8-15.6.26-26.59,7.14-27.21-1.59-13.33-.77-26.44.89-39.7-14.11-9.66-35.67-6.13-45.94-21.86q-8.92-1.34-17.84-2.68c-1.35,13.14-31.95,10.35-36.57,12.49-1.91.88-1.17,3.34-1.34,3.57Z" style="fill:#f59077; stroke-width:0px;"/><path d="M294.54,230.55c-.07.88.06,1.79,0,2.68-.21,2.9-.68,5.93-.89,8.92,10.93-26.7,23.17-13.55,28.1-13.38,10.85.37-10.29-24-22.75-7.58-2.13,2.81-2,6.78-4.46,9.37Z" style="fill:#181616; stroke-width:0px;"/><path d="M293.64,251.06c.07,2.02-.79,3.2-.89,5.35,10.33-13.23,18,.87,19.18.89,7.93.16-4.99-18.83-18.29-6.24Z" style="fill:#212629; stroke-width:0px;"/><path d="M368.13,218.06c-5.04-.76-18.18,1.23-19.18,7.58-1.63,10.33,8.01-2.12,21.86,5.8,4.21,2.41,9.06,11.51,9.81,11.6,7.34.88,4.39-22.42-12.49-24.98Z" style="fill:#0b0d19; stroke-width:0px;"/><path d="M369.92,249.28c-7.62-1.57-16.89,1.2-19.18,9.37,1.63,2.83,5.23-6.76,20.96-4.91,1.09.13,14.13,7.45,4.46-.89-.41-.36-5.89-3.5-6.24-3.57Z" style="fill:#2b2322; stroke-width:0px;"/><path d="M339.59,272.47c-.42-.01-4.07,4.83-6.24,5.35-8.56,2.04-12.65-4.55-13.38-4.46-2.84.35-.61,5.47,4.46,7.14,11.76,3.87,19.8-7.91,15.17-8.03Z" style="fill:#771f2a; stroke-width:0px;"/><path d="M360.55,283.18c-.02.59.04,1.19,0,1.78-.71,11.24-32.61,16.4-44.6,8.92,8.05,9.89,26.73,23.34,40.14,24.09,5.91-10.66,7.2-22.41,7.14-34.34-.41-.92-2.03-.18-2.68-.45Z" style="fill:#1e1319; stroke-width:0px;"/><path d="M316.84,312.61c.37.58,1.26,4.73,5.35,7.14,6.18,3.63,21.22,5.17,28.1,1.78l-5.8,6.24c.16-.03,1.07,1.64,3.12.89,2.66-.97,6.99-8.02,8.47-10.7-13.41-.75-32.1-14.2-40.14-24.09-.59-.72-.85-.84-.89-.89l1.78,19.63Z" style="fill:#4f0f1a; stroke-width:0px;"/><path d="M316.84,312.61l-1.78-19.63c-8.93-11.98-2.21-3.37,9.81-1.78l.89-1.78c-5.95-.95-14.62-5-20.07-8.03l-1.34,1.34c4.83,9.73,6.53,20.62,12.49,29.88Z" style="fill:#771f2a; stroke-width:0px;"/><path d="M344.49,327.78l5.8-6.24c-6.88,3.39-21.92,1.85-28.1-1.78,2.07,9.06,14.61,9.25,22.3,8.03Z" style="fill:#fcf4ef; stroke-width:0px;"/><path d="M325.76,289.42l-.89,1.78c12.24,1.62,24.67-.63,35.68-6.24.04-.59-.02-1.19,0-1.78-6.78-2.78-14.02,9.56-34.79,6.24Z" style="fill:#e06c68; stroke-width:0px;"/><path d="M324.87,291.21c-12.02-1.59-18.75-10.2-9.81,1.78.04.05.3.17.89.89,11.99,7.48,43.89,2.32,44.6-8.92-11.01,5.62-23.45,7.86-35.68,6.24Z" style="fill:#fcf4ef; stroke-width:0px;"/></svg>